<?xml version="1.0" encoding="UTF-8" standalone="no"?>
<svg width="100%" height="100%" viewBox="0 0 300 300" version="1.1" xmlns="http://www.w3.org/2000/svg" xmlnsXlink="http://www.w3.org/1999/xlink" xml:space="preserve" xmlnsSerif="http://www.serif.com/" style="fill-rule:evenodd;clip-rule:evenodd;stroke-linejoin:round;stroke-miterlimit:2;">
    <circle cx="150" cy="150" r="138.682" style="fill:#ffeba1;" />
    <path d="M150,1.674c81.864,-0 148.326,66.462 148.326,148.326c0,81.864 -66.462,148.326 -148.326,148.326c-81.864,0 -148.326,-66.462 -148.326,-148.326c-0,-81.864 66.462,-148.326 148.326,-148.326Zm0,10.383c76.133,-0 137.943,61.81 137.943,137.943c0,76.133 -61.81,137.943 -137.943,137.943c-76.133,0 -137.943,-61.81 -137.943,-137.943c-0,-76.133 61.81,-137.943 137.943,-137.943Z" />
    <g id="color">
        <path d="M79.767,200.682c2.588,11.146 7.79,21.844 14.697,32.3c3.775,5.714 10.76,3.277 12.402,-3.37c1.42,-3.67 2.258,-7.912 2.637,-12.329" style="fill:#61b2e4;fill-rule:nonzero;" />
        <path d="M181.175,74.323c-2.89,0.857 -4.154,14.235 -3.955,18.848c0.547,12.679 21.99,12.881 11.866,26.668c-43.734,49.333 -109.971,-15.768 -143.863,15.251c-5.186,47.65 70.242,114.375 129.125,74.642c34.191,-23.071 43.579,-61.646 46.175,-83.734c1.836,-4.774 6.103,-5.845 13.68,-7.91c21.639,-6.084 20.436,-17.917 20.638,-33.862c-9.827,11.905 -20.445,7.502 -28.426,7.202c-4.612,-0.017 -9.091,5.185 -11.906,7.479c-0.376,-2.629 -0.943,-6.149 -3.467,-9.074c-6.273,-7.269 -20.612,-3.165 -26.668,-11.988c-0.966,-2.23 -1.831,-3.3 -2.596,-3.523c-0.207,-0.061 -0.41,-0.057 -0.603,-0l0,0.001Z" style="fill:#61b2e4;fill-rule:nonzero;" />
        <path d="M224.35,122.457l-0.879,0.268l-3.369,6.128c0.021,-0.166 0.06,-0.372 0.081,-0.537l0,-0.171c-0.077,0.351 -0.173,0.67 -0.252,1.018l-5.989,10.896c-1.354,6.152 -3.323,12.822 -5.949,19.605c-23.069,37.079 -65.688,32.435 -93.913,13.656c-15.726,-10.464 -36.212,-30.306 -49.641,-31.958c-8.837,-1.088 -18.664,4.234 -16.935,13.078l-3.052,5.379c6.38,18.378 20.837,36.163 39.046,48.746c26.565,18.358 62.263,25.506 93.288,4.573c34.503,-23.281 44.529,-61.175 47.566,-84.17l0,-6.511l-0.002,-0Z" style="fill:#d0cfce;fill-rule:nonzero;" />
        <path d="M136.392,184.011c2.175,23.411 14.688,40.65 33.356,55.175c5.405,4.206 11.236,-0.34 10.664,-7.163c0.785,-18.172 -11.101,-44.467 -23.777,-44.488" style="fill:#61b2e4;fill-rule:nonzero;" />
    </g>
    <g id="line">
        <path d="M67.913,71.565c-2.521,-0.244 -5.104,0.107 -7.544,1.05c-4.88,1.885 -9.312,5.75 -13.46,11.206c-0.61,0.744 -0.943,1.677 -0.943,2.639c0,2.286 1.881,4.168 4.167,4.168c1.355,-0 2.628,-0.661 3.408,-1.769c3.535,-4.65 7.029,-7.39 9.831,-8.472c2.801,-1.082 4.777,-0.882 7.104,0.659c4.655,3.081 10.132,13.868 11.882,33.333c0.152,2.171 1.981,3.877 4.157,3.877c2.286,-0 4.167,-1.882 4.167,-4.168c0,-0.149 -0.008,-0.298 -0.024,-0.446c-1.852,-20.604 -6.831,-33.753 -15.576,-39.543c-2.186,-1.447 -4.649,-2.287 -7.17,-2.531l0.001,-0.003Z" style="fill-rule:nonzero;" />
        <path d="M118.025,66.427c-2.419,-0.175 -4.86,0.121 -7.243,0.953c-9.531,3.327 -16.291,14.418 -17.073,32.527c-0.006,0.086 -0.008,0.172 -0.008,0.257c-0,2.286 1.881,4.167 4.167,4.167c2.248,0 4.111,-1.819 4.166,-4.066c0.701,-16.236 6.337,-23.214 11.499,-25.016c5.161,-1.802 11.661,0.791 16.268,8.276c0.753,1.247 2.109,2.011 3.566,2.011c2.286,0 4.167,-1.881 4.167,-4.167c-0,-0.783 -0.221,-1.55 -0.637,-2.214c-4.563,-7.416 -11.613,-12.2 -18.871,-12.725l-0.001,-0.003Z" style="fill-rule:nonzero;" />
        <path d="M85.271,55.142c-2.264,0.031 -4.11,1.902 -4.11,4.166c0,0.437 0.069,0.871 0.204,1.286c0.976,3.167 1.995,5.532 2.181,9.546c0.081,2.227 1.935,4.016 4.164,4.016c2.286,-0 4.167,-1.881 4.167,-4.167c0,-0.077 -0.002,-0.155 -0.006,-0.232c-0.247,-5.332 -1.737,-8.994 -2.547,-11.621c-0.525,-1.789 -2.19,-3.019 -4.055,-2.994l0.002,-0Z" style="fill-rule:nonzero;" />
        <path d="M183.504,178.098c-0.653,-0.009 -1.3,0.136 -1.888,0.423c-7.785,3.662 -16.239,5.133 -24.837,4.859c-0.05,-0.002 -0.1,-0.003 -0.15,-0.003c-2.287,0 -4.169,1.882 -4.169,4.169c0,2.245 1.814,4.108 4.059,4.167c9.729,0.31 19.536,-1.372 28.646,-5.656c1.484,-0.675 2.44,-2.162 2.44,-3.792c0,-2.261 -1.84,-4.131 -4.1,-4.167l-0.001,0Z" style="fill-rule:nonzero;" />
        <path d="M136.354,179.782c-2.273,0.018 -4.133,1.893 -4.133,4.167c-0,0.149 0.008,0.298 0.024,0.447c2.294,24.689 15.728,43.129 34.944,58.079c3.85,2.996 9.093,3.113 12.549,0.659c3.413,-2.423 5.135,-6.699 4.801,-11.295c0.354,-9.995 -2.522,-21.376 -7.243,-30.746c-2.387,-4.733 -5.241,-8.946 -8.608,-12.158c-3.371,-3.217 -7.438,-5.55 -12.046,-5.558c-0.022,-0.001 -0.044,-0.001 -0.066,-0.001c-2.286,0 -4.167,1.881 -4.167,4.167c-0,2.286 1.881,4.167 4.167,4.167c0.016,0 0.033,0 0.05,-0c1.729,0.003 3.907,0.957 6.307,3.247c2.4,2.29 4.847,5.788 6.917,9.896c4.14,8.216 6.755,18.9 6.405,26.994c-0.008,0.176 -0.006,0.353 0.008,0.529c0.181,2.16 -0.683,3.497 -1.351,3.971c-0.667,0.474 -1.048,0.771 -2.604,-0.44c-18.121,-14.1 -29.708,-30.15 -31.762,-52.283c-0.17,-2.171 -2.014,-3.861 -4.192,-3.842l0,-0Z" style="fill-rule:nonzero;" />
        <path d="M64.942,137.223c-5.459,-0.671 -11.031,0.541 -15.389,3.573c-4.359,3.032 -7.396,8.607 -6.104,14.689c0.395,1.934 2.111,3.336 4.085,3.336c2.286,-0 4.168,-1.882 4.168,-4.169c-0,-0.303 -0.033,-0.605 -0.098,-0.9c-0.61,-2.871 0.355,-4.48 2.701,-6.112c2.347,-1.632 6.18,-2.572 9.62,-2.148c4.963,0.61 13.376,5.523 21.997,11.889c8.62,6.366 17.666,13.959 25.846,19.401c7.028,4.676 14.89,8.51 23.161,11.133c0.422,0.14 0.865,0.211 1.31,0.211c2.286,0 4.167,-1.881 4.167,-4.167c0,-1.829 -1.204,-3.454 -2.955,-3.987c-7.487,-2.374 -14.672,-5.873 -21.061,-10.123c-7.547,-5.022 -16.607,-12.582 -25.521,-19.165c-8.913,-6.583 -17.462,-12.419 -25.928,-13.461l0.001,0Z" style="fill-rule:nonzero;" />
        <path d="M183.05,70.302c-0.948,-0.276 -2.041,-0.262 -2.954,0.009c-0.983,0.293 -1.824,0.94 -2.36,1.814c-0.229,0.266 -0.74,0.449 -0.911,0.7c-0.615,0.904 -0.999,1.786 -1.335,2.718c-0.673,1.865 -1.114,3.945 -1.465,6.112c-0.702,4.335 -0.986,8.819 -0.862,11.678c0.187,4.34 2.307,7.815 4.655,10.27c2.347,2.455 4.928,4.18 6.819,5.705c1.891,1.525 2.839,2.733 3.027,3.417c0.183,0.661 0.135,1.805 -1.766,4.468c-10.238,11.466 -21.307,16.083 -33.3,17.31c-12.058,1.234 -25.064,-1.162 -38.07,-4.248c-13.006,-3.086 -25.955,-6.847 -38.232,-7.87c-12.278,-1.021 -24.283,0.91 -33.79,9.611c-0.745,0.684 -1.217,1.616 -1.326,2.621c-2.22,20.398 8.722,42.729 26.05,60.304c17.328,17.575 41.363,30.547 66.675,31.055c0.033,0 0.066,0.001 0.099,0.001c2.286,-0 4.168,-1.882 4.168,-4.168c-0,-2.262 -1.842,-4.132 -4.104,-4.167c-22.546,-0.446 -44.859,-12.287 -60.909,-28.566c-15.483,-15.705 -24.591,-35.321 -23.6,-51.692c7.18,-5.856 15.636,-7.556 26.042,-6.69c11.041,0.919 23.738,4.537 36.995,7.683c13.257,3.145 27.132,5.831 40.853,4.427c13.721,-1.404 27.27,-7.15 38.851,-20.215c0.086,-0.094 0.167,-0.192 0.244,-0.293c2.95,-4.016 4.151,-8.148 3.15,-11.776c-1.002,-3.627 -3.554,-5.857 -5.827,-7.69c-2.273,-1.834 -4.52,-3.393 -6.03,-4.973c-1.511,-1.579 -2.266,-2.883 -2.352,-4.883c-0.076,-1.754 0.162,-6.264 0.765,-9.985c0.101,-0.625 0.247,-0.974 0.366,-1.546c4.079,4.492 9.642,6.155 14.323,7.055c5.228,1.006 9.194,1.893 11.051,4.045c1.646,1.907 2.124,4.379 2.49,6.942c0.292,2.043 2.061,3.577 4.125,3.577c0.962,0 1.894,-0.332 2.638,-0.941c1.765,-1.437 3.454,-3.196 5.192,-4.54c1.731,-1.34 3.306,-1.992 4.044,-1.994c3.295,0.142 8.168,1.367 13.851,0.96c3.261,-0.234 6.745,-1.475 10.197,-3.467c-0.191,3.951 -0.572,7.479 -1.7,10.132c-1.913,4.498 -5.527,8.009 -15.65,10.856c-3.757,1.024 -6.881,1.796 -9.733,3.223c-2.861,1.432 -5.445,3.903 -6.714,7.202c-0.123,0.325 -0.205,0.664 -0.244,1.009c-2.1,17.873 -8.843,46.742 -29.809,68.521c-0.76,0.778 -1.186,1.824 -1.186,2.912c-0,2.286 1.881,4.167 4.167,4.167c1.143,-0 2.238,-0.471 3.024,-1.301c22.557,-23.434 29.605,-53.492 31.926,-72.421c0.541,-1.352 0.997,-1.853 2.563,-2.637c1.626,-0.813 4.424,-1.616 8.228,-2.653c0.011,-0.003 0.021,-0.005 0.032,-0.008c11.517,-3.238 18.116,-8.683 21.062,-15.609c2.945,-6.926 2.513,-14.354 2.612,-22.209c0,-0.016 0,-0.033 0,-0.05c0,-2.286 -1.881,-4.167 -4.167,-4.167c-1.243,0 -2.423,0.557 -3.214,1.516c-4.285,5.19 -7.96,6.384 -11.988,6.673c-4.028,0.289 -8.384,-0.808 -13.069,-0.985c-0.047,-0.003 -0.093,-0.006 -0.139,-0.008c-3.877,-0.014 -6.829,1.926 -9.188,3.751c-0.266,0.206 -0.347,0.321 -0.602,0.529c-0.629,-1.483 -1.2,-2.989 -2.441,-4.427c-4.416,-5.117 -10.765,-5.813 -15.788,-6.779c-4.985,-0.958 -8.541,-1.948 -10.539,-4.793c-0.985,-2.31 -1.845,-4.318 -4.923,-5.217l0.003,-0.005Z" style="fill-rule:nonzero;" />
        <path d="M79.688,196.465c-2.216,0.096 -3.987,1.945 -3.987,4.163c0,0.336 0.041,0.67 0.121,0.997c2.734,11.772 8.178,22.907 15.275,33.65c2.689,4.071 7.617,5.863 11.678,4.647c4,-1.198 6.999,-4.685 8.163,-9.131c1.536,-4.083 2.437,-8.554 2.832,-13.151c0.012,-0.133 0.019,-0.267 0.019,-0.4c-0,-2.288 -1.882,-4.17 -4.17,-4.17c-2.169,-0 -3.994,1.692 -4.158,3.854c-0.354,4.122 -1.14,8.004 -2.368,11.182c-0.065,0.164 -0.12,0.333 -0.163,0.504c-0.52,2.103 -1.761,3.094 -2.547,3.329c-0.786,0.235 -1.242,0.39 -2.328,-1.253c-6.716,-10.168 -11.676,-20.429 -14.119,-30.949c-0.432,-1.969 -2.233,-3.356 -4.246,-3.271l-0.002,-0.001Z" style="fill-rule:nonzero;" />
    </g>
</svg>